<svg width="100" height="61" viewBox="0 0 100 61" fill="none" xmlns="http://www.w3.org/2000/svg">
<rect width="100" height="61" fill="#E7E7E7"/>
<path d="M28.8 37.5V23.5H30.7V35.8H37.12V37.5H28.8ZM43.1948 37.74C42.2082 37.74 41.3215 37.5133 40.5348 37.06C39.7482 36.5933 39.1282 35.9533 38.6748 35.14C38.2348 34.3133 38.0148 33.3667 38.0148 32.3C38.0148 31.18 38.2415 30.2133 38.6948 29.4C39.1482 28.5867 39.7682 27.96 40.5548 27.52C41.3415 27.08 42.2215 26.86 43.1948 26.86C44.1682 26.86 45.0415 27.08 45.8148 27.52C46.6015 27.96 47.2215 28.5867 47.6748 29.4C48.1415 30.2 48.3748 31.1533 48.3748 32.26C48.3748 33.3667 48.1482 34.3333 47.6948 35.16C47.2415 35.9733 46.6215 36.6067 45.8348 37.06C45.0615 37.5133 44.1815 37.74 43.1948 37.74ZM43.1948 36.14C44.2482 36.14 45.0682 35.7867 45.6548 35.08C46.2415 34.36 46.5348 33.4333 46.5348 32.3C46.5348 31.6067 46.3882 30.9733 46.0948 30.4C45.8015 29.8133 45.4015 29.3467 44.8948 29C44.4015 28.64 43.8348 28.46 43.1948 28.46C42.1415 28.46 41.3215 28.8067 40.7348 29.5C40.1482 30.1933 39.8548 31.1133 39.8548 32.26C39.8548 32.9533 40.0015 33.6 40.2948 34.2C40.5882 34.7867 40.9815 35.26 41.4748 35.62C41.9815 35.9667 42.5548 36.14 43.1948 36.14ZM54.588 42.14C53.9746 42.14 53.3746 42.0667 52.788 41.92C52.2146 41.7733 51.7013 41.5533 51.248 41.26L51.908 39.7C52.228 39.9533 52.6013 40.16 53.028 40.32C53.4546 40.4933 53.9746 40.58 54.588 40.58C55.5346 40.58 56.2746 40.3267 56.808 39.82C57.3546 39.3267 57.628 38.5333 57.628 37.44V36.16C57.3613 36.48 56.9746 36.7867 56.468 37.08C55.9746 37.36 55.3813 37.5 54.688 37.5C53.9013 37.5 53.1546 37.3 52.448 36.9C51.7413 36.4867 51.168 35.8867 50.728 35.1C50.288 34.3133 50.068 33.3667 50.068 32.26C50.068 31.22 50.2813 30.2933 50.708 29.48C51.148 28.6667 51.7346 28.0267 52.468 27.56C53.2013 27.0933 54.008 26.86 54.888 26.86C55.4746 26.86 56.008 26.96 56.488 27.16C56.968 27.36 57.3813 27.6067 57.728 27.9V27.1H59.368V37.26C59.368 38.4067 59.168 39.34 58.768 40.06C58.368 40.78 57.808 41.3067 57.088 41.64C56.3813 41.9733 55.548 42.14 54.588 42.14ZM55.088 35.9C55.6213 35.9 56.1013 35.78 56.528 35.54C56.9546 35.3 57.3013 35.02 57.568 34.7V29.26C57.2746 29.0467 56.9213 28.8533 56.508 28.68C56.0946 28.5067 55.6146 28.42 55.068 28.42C54.5213 28.42 54.008 28.5667 53.528 28.86C53.048 29.1533 52.6546 29.58 52.348 30.14C52.0546 30.6867 51.908 31.36 51.908 32.16C51.908 32.92 52.0546 33.58 52.348 34.14C52.6546 34.7 53.048 35.1333 53.528 35.44C54.008 35.7467 54.528 35.9 55.088 35.9ZM66.8472 37.74C65.8605 37.74 64.9739 37.5133 64.1872 37.06C63.4005 36.5933 62.7805 35.9533 62.3272 35.14C61.8872 34.3133 61.6672 33.3667 61.6672 32.3C61.6672 31.18 61.8939 30.2133 62.3472 29.4C62.8005 28.5867 63.4205 27.96 64.2072 27.52C64.9939 27.08 65.8739 26.86 66.8472 26.86C67.8205 26.86 68.6939 27.08 69.4672 27.52C70.2539 27.96 70.8739 28.5867 71.3272 29.4C71.7939 30.2 72.0272 31.1533 72.0272 32.26C72.0272 33.3667 71.8005 34.3333 71.3472 35.16C70.8939 35.9733 70.2739 36.6067 69.4872 37.06C68.7139 37.5133 67.8339 37.74 66.8472 37.74ZM66.8472 36.14C67.9005 36.14 68.7205 35.7867 69.3072 35.08C69.8939 34.36 70.1872 33.4333 70.1872 32.3C70.1872 31.6067 70.0405 30.9733 69.7472 30.4C69.4539 29.8133 69.0539 29.3467 68.5472 29C68.0539 28.64 67.4872 28.46 66.8472 28.46C65.7939 28.46 64.9739 28.8067 64.3872 29.5C63.8005 30.1933 63.5072 31.1133 63.5072 32.26C63.5072 32.9533 63.6539 33.6 63.9472 34.2C64.2405 34.7867 64.6339 35.26 65.1272 35.62C65.6339 35.9667 66.2072 36.14 66.8472 36.14Z" fill="#DC4A2D"/>
</svg>
